<svg width="1440" height="900" viewBox="0 0 1440 900" fill="none" xmlns="http://www.w3.org/2000/svg">
<rect width="1443" height="1022" fill="#C05543"/>
<path opacity="0.09" d="M1557 565.434V1021.81H-130.4V540.979C-125.7 540.016 -121.1 538.861 -116.5 537.513C-109.3 535.587 -102.1 533.662 -94.8004 531.928C51.0996 495.342 200.9 495.342 346.7 531.928C467.4 562.353 584.8 617.234 704.6 654.784C706.7 655.361 708.9 656.132 711.1 656.709C738.3 664.99 765.6 672.499 793.1 679.047C839 690.023 886.7 699.843 935.1 707.161C1024.4 720.833 1116.1 725.454 1203 710.434C1220.4 707.353 1237.7 703.695 1254.7 698.88C1327.2 678.854 1398.7 653.628 1468.5 617.234C1483.4 609.531 1498.2 601.251 1512.9 592.778C1527.7 584.113 1542.4 575.063 1557 565.434Z" fill="white"/>
<path opacity="0.17" d="M1557 604.911V1022H-130.4V526.73C-118.5 528.271 -106.7 530.004 -94.8004 531.93C-88.4004 533.085 -81.9004 534.048 -75.5004 535.396C116.3 572.368 302.3 676.352 491.6 726.226C562.6 744.904 634.1 756.073 706.5 753.377C783.8 750.296 859.7 731.617 935.2 707.354C983.4 691.949 1031.5 674.234 1079.6 657.096C1107.5 647.275 1135.5 637.454 1163.6 628.596C1277.9 592.009 1398.2 568.324 1513.1 592.972C1527.7 596.053 1542.4 600.097 1557 604.911Z" fill="white"/>
<path opacity="0.25" d="M1557 874.307V1022H-130.4V871.803C-29.8004 881.624 74.4996 866.411 172.8 839.26C281.4 809.413 385.9 765.894 491.6 726.226C534 710.435 576.7 695.223 619.8 681.744C649.8 672.501 680.3 664.028 711.1 656.71C833.4 628.211 960.5 620.123 1079.5 656.903C1081.2 657.481 1082.9 657.866 1084.5 658.443C1125.6 671.73 1164.7 690.024 1203 710.243C1261.3 741.245 1317.8 776.87 1376.9 806.139C1434.6 835.216 1495 857.746 1557 874.307Z" fill="white"/>
<path opacity="0.34" d="M1350.9 823.064C1346.1 823.064 1346.1 831.106 1350.9 831.106C1355.7 831.106 1355.7 823.064 1350.9 823.064Z" fill="white"/>
<path opacity="0.34" d="M1373.4 689.559C1368.6 689.559 1368.6 697.6 1373.4 697.6C1378.2 697.481 1378.2 689.559 1373.4 689.559Z" fill="white"/>
<path opacity="0.34" d="M1165.8 791.018C1161 791.018 1161 799.059 1165.8 799.059C1170.7 799.059 1170.7 791.018 1165.8 791.018Z" fill="white"/>
<path opacity="0.34" d="M1120.8 849.789C1116 849.789 1116 857.83 1120.8 857.83C1125.7 857.83 1125.7 849.789 1120.8 849.789Z" fill="white"/>
<path opacity="0.34" d="M975.8 705.523C971 705.523 971 713.565 975.8 713.565C980.6 713.565 980.6 705.523 975.8 705.523Z" fill="white"/>
<path opacity="0.34" d="M1003.3 603.945C998.5 603.945 998.5 611.986 1003.3 611.986C1008.1 611.986 1008.1 603.945 1003.3 603.945Z" fill="white"/>
<path opacity="0.34" d="M1360.9 574.617C1356.1 574.617 1356.1 582.658 1360.9 582.658C1365.7 582.658 1365.7 574.617 1360.9 574.617Z" fill="white"/>
<path opacity="0.34" d="M1050.8 708.24C1046 708.24 1046 716.281 1050.8 716.281C1055.6 716.163 1055.7 708.24 1050.8 708.24Z" fill="white"/>
<path opacity="0.34" d="M1150.8 550.496C1146 550.496 1146 558.537 1150.8 558.537C1155.7 558.537 1155.7 550.496 1150.8 550.496Z" fill="white"/>
<path opacity="0.34" d="M1005.8 473.043C1001 473.043 1001 481.084 1005.8 481.084C1010.6 481.084 1010.6 473.043 1005.8 473.043Z" fill="white"/>
<path opacity="0.34" d="M638.2 686.84C633.4 686.84 633.4 694.881 638.2 694.881C643.1 694.881 643.1 686.84 638.2 686.84Z" fill="white"/>
<path opacity="0.34" d="M850.8 785.697C846 785.697 846 793.738 850.8 793.738C855.6 793.738 855.6 785.697 850.8 785.697Z" fill="white"/>
<path opacity="0.34" d="M673.2 622.746C668.4 622.746 668.4 630.787 673.2 630.787C678.1 630.669 678.1 622.746 673.2 622.746Z" fill="white"/>
<path opacity="0.34" d="M625.7 537.133C620.9 537.133 620.9 545.174 625.7 545.174C630.6 545.174 630.6 537.133 625.7 537.133Z" fill="white"/>
<path opacity="0.34" d="M490.7 756.254C485.9 756.254 485.9 764.295 490.7 764.295C495.5 764.295 495.5 756.254 490.7 756.254Z" fill="white"/>
<path opacity="0.34" d="M520.7 852.508C515.9 852.508 515.9 860.549 520.7 860.549C525.5 860.549 525.5 852.508 520.7 852.508Z" fill="white"/>
<path opacity="0.34" d="M370.7 836.428C365.9 836.428 365.9 844.469 370.7 844.469C375.5 844.469 375.5 836.428 370.7 836.428Z" fill="white"/>
<path opacity="0.34" d="M185.6 646.75C180.8 646.75 180.8 654.791 185.6 654.791C190.5 654.791 190.5 646.75 185.6 646.75Z" fill="white"/>
<path opacity="0.34" d="M453.2 502.484C448.4 502.484 448.4 510.525 453.2 510.525C458 510.407 458 502.484 453.2 502.484Z" fill="white"/>
<path opacity="0.34" d="M210.7 465C205.9 465 205.9 473.041 210.7 473.041C215.5 473.041 215.5 465 210.7 465Z" fill="white"/>
<path opacity="0.34" d="M65.6 649.473C60.8 649.473 60.8 657.514 65.6 657.514C70.5 657.395 70.5 649.473 65.6 649.473Z" fill="white"/>
<path opacity="0.34" d="M220.7 807.102C215.9 807.102 215.9 815.143 220.7 815.143C225.5 815.143 225.5 807.102 220.7 807.102Z" fill="white"/>
<path opacity="0.34" d="M28.1 871.191C23.3 871.191 23.3 879.233 28.1 879.233C32.9 879.233 33 871.191 28.1 871.191Z" fill="white"/>
<path opacity="0.34" d="M73.1 590.582C68.3 590.582 68.3 598.623 73.1 598.623C78 598.623 78 590.582 73.1 590.582Z" fill="white"/>
<path opacity="0.34" d="M3.1 593.303C-1.7 593.303 -1.7 601.344 3.1 601.344C7.9 601.344 7.9 593.303 3.1 593.303Z" fill="white"/>
<path opacity="0.34" d="M118.1 475.76C113.3 475.76 113.3 483.801 118.1 483.801C123 483.683 123 475.76 118.1 475.76Z" fill="white"/>
<path opacity="0.34" d="M390.7 467.721C385.9 467.721 385.9 475.762 390.7 475.762C395.5 475.762 395.5 467.721 390.7 467.721Z" fill="white"/>
<path opacity="0.34" d="M143.1 673.479C138.3 673.479 138.3 681.52 143.1 681.52C148 681.52 148 673.479 143.1 673.479Z" fill="white"/>
<path opacity="0.34" d="M280.7 582.66C275.9 582.66 275.9 590.701 280.7 590.701C285.5 590.583 285.5 582.66 280.7 582.66Z" fill="white"/>
<path opacity="0.34" d="M378.2 497.047C373.4 497.047 373.4 505.088 378.2 505.088C383 505.088 383 497.047 378.2 497.047Z" fill="white"/>
<path opacity="0.34" d="M593.2 649.473C588.4 649.473 588.4 657.514 593.2 657.514C598.1 657.395 598.1 649.473 593.2 649.473Z" fill="white"/>
<path opacity="0.34" d="M740.5 800.951C740.8 800.714 741 800.359 741.3 800.123C742.7 798.586 742.8 795.866 741.3 794.447C739.8 793.028 737.5 792.91 736 794.447C735.8 794.683 735.5 795.038 735.2 795.275C733.8 796.812 733.7 799.532 735.2 800.951C736.7 802.488 739 802.488 740.5 800.951Z" fill="white"/>
<path opacity="0.34" d="M1050.8 633.391C1046 633.391 1046 641.432 1050.8 641.432C1055.6 641.432 1055.7 633.391 1050.8 633.391Z" fill="white"/>
<path opacity="0.34" d="M1208.3 587.98C1203.5 587.98 1203.5 596.022 1208.3 596.022C1213.2 596.022 1213.2 587.98 1208.3 587.98Z" fill="white"/>
<path opacity="0.34" d="M1350.9 750.932C1346.1 750.932 1346.1 758.973 1350.9 758.973C1355.7 758.973 1355.7 750.932 1350.9 750.932Z" fill="white"/>
<path opacity="0.34" d="M1310.9 897.916C1306.1 897.916 1306.1 905.957 1310.9 905.957C1315.7 905.957 1315.7 897.916 1310.9 897.916Z" fill="white"/>
<path d="M1557 770.281V894H-130V635C-125.901 637.698 -121.802 640.396 -117.603 643.094C-102.606 652.729 -87.5101 661.979 -72.3137 670.844C-0.830627 712.469 72.9519 744.073 148.134 771.052C165.73 777.411 183.626 782.807 201.821 787.625C292.3 811.713 388.977 818.266 483.455 816.146C534.742 814.99 585.33 811.521 634.019 806.896C663.112 804.198 692.205 800.536 721.298 795.911C723.598 795.526 725.897 795.141 728.197 794.755C855.966 774.328 982.136 737.328 1110.51 723.646C1259.67 708.229 1410.93 723.838 1557 770.281Z" fill="white" fill-opacity="0.3"/>
<path d="M1557 463.611V894H-130V-7C-125.901 2.38542 -121.802 11.7709 -117.603 21.1563C-102.606 54.6757 -87.5101 86.854 -72.3137 117.692C-0.830627 262.495 72.9519 372.439 148.134 466.293C165.73 488.416 183.626 507.186 201.821 523.946C292.3 607.744 388.977 630.538 483.455 623.164C534.742 619.141 585.33 607.074 634.019 590.985C663.112 581.599 692.205 568.862 721.298 552.773C723.598 551.432 725.897 550.092 728.197 548.751C855.966 477.69 982.136 348.975 1110.51 301.378C1259.67 247.747 1410.93 302.048 1557 463.611Z" fill="white" fill-opacity="0.08"/>
</svg>
