<svg width="22" height="16" viewBox="0 0 22 16" fill="none" xmlns="http://www.w3.org/2000/svg">
<path d="M20.1494 14.2507L19.1738 13.0133L18.1607 14.2507H16.172H11.8945V8.49067H9.90584L12.3823 2.048H14.7837L15.6467 4.26667V2.048H18.6485L19.1738 3.712L19.6991 2.048H21.988V1.06667C21.988 0.469333 21.5752 0 21.0499 0H0.938053C0.412743 0 0 0.469333 0 1.06667V14.9333C0 15.5307 0.412743 16 0.938053 16H21.0499C21.5752 16 21.988 15.5307 21.988 14.9333V14.2507H20.1494Z" fill="#0071CE"/>
<path d="M20.395 13.5686H21.9709L19.9072 11.0512L21.9709 8.57657H20.4325L19.1193 10.1979L17.8435 8.57657H16.2676L18.3688 11.0939L16.2676 13.5686H17.806L19.1193 11.9472L20.395 13.5686Z" fill="#0071CE"/>
<path d="M14.0435 12.4166V11.6486H16.5199V10.4966H14.0435V9.72857H16.5575V8.57657H12.8428V13.5686H16.5575V12.4166H14.0435Z" fill="#0071CE"/>
<path d="M20.8078 7.85187H21.9334V2.8172L20.1324 2.85987L19.1568 5.97453L18.1437 2.85987H16.2676V7.85187H17.4683V4.3532L18.594 7.85187H19.6446L20.8078 4.3532V7.85187Z" fill="#0071CE"/>
<path d="M14.6194 2.86095H13.081L11.1299 7.85295H12.4432L12.8184 6.87161H14.8446L15.2198 7.85295H16.5706L14.6194 2.86095ZM13.2311 5.71961L13.8315 4.09828L14.4318 5.71961H13.2311Z" fill="#0071CE"/>
<path d="M18.8379 10.9216L19.926 12.2869V9.55624L18.8379 10.9216Z" fill="#0071CE"/>
</svg>
