<svg width="26" height="17" viewBox="0 0 26 17" fill="none" xmlns="http://www.w3.org/2000/svg">
<rect x="0.5" y="0.5" width="23.8066" height="15.3654" rx="2.5" stroke="#4C4C4C"/>
<rect x="0.476562" y="3.98438" width="23.8525" height="3.09615" fill="#4C4C4C"/>
<path d="M13.339 13.4766V9.84656L12.526 10.3416V9.64256L13.339 9.15656H13.978V13.4766H13.339ZM14.9973 13.4736L15.0003 12.9156L16.8813 11.2296C17.0333 11.0956 17.1363 10.9676 17.1903 10.8456C17.2463 10.7236 17.2743 10.6016 17.2743 10.4796C17.2743 10.3256 17.2403 10.1876 17.1723 10.0656C17.1043 9.94156 17.0103 9.84356 16.8903 9.77156C16.7703 9.69956 16.6323 9.66356 16.4763 9.66356C16.3163 9.66356 16.1733 9.70156 16.0473 9.77756C15.9233 9.85156 15.8263 9.95056 15.7563 10.0746C15.6863 10.1986 15.6523 10.3326 15.6543 10.4766H15.0123C15.0123 10.1966 15.0753 9.95156 15.2013 9.74156C15.3293 9.52956 15.5043 9.36456 15.7263 9.24656C15.9483 9.12656 16.2023 9.06656 16.4883 9.06656C16.7603 9.06656 17.0043 9.12856 17.2203 9.25256C17.4363 9.37456 17.6063 9.54256 17.7303 9.75656C17.8563 9.97056 17.9193 10.2146 17.9193 10.4886C17.9193 10.6866 17.8933 10.8546 17.8413 10.9926C17.7893 11.1306 17.7113 11.2586 17.6073 11.3766C17.5033 11.4946 17.3733 11.6226 17.2173 11.7606L15.7653 13.0566L15.6963 12.8766H17.9193V13.4736H14.9973ZM19.8478 13.5576C19.6338 13.5576 19.4328 13.5176 19.2448 13.4376C19.0568 13.3556 18.8938 13.2396 18.7558 13.0896C18.6198 12.9396 18.5208 12.7626 18.4588 12.5586L19.0648 12.3906C19.1228 12.5766 19.2238 12.7196 19.3678 12.8196C19.5118 12.9176 19.6718 12.9656 19.8478 12.9636C20.0058 12.9616 20.1448 12.9246 20.2648 12.8526C20.3848 12.7806 20.4788 12.6836 20.5468 12.5616C20.6148 12.4376 20.6488 12.2956 20.6488 12.1356C20.6488 11.8956 20.5738 11.6976 20.4238 11.5416C20.2758 11.3856 20.0818 11.3076 19.8418 11.3076C19.7738 11.3076 19.7038 11.3176 19.6318 11.3376C19.5618 11.3576 19.4958 11.3836 19.4338 11.4156L19.1398 10.9206L20.6638 9.57356L20.7298 9.75356H18.6298V9.15656H21.2278V9.75356L19.9618 10.9716L19.9558 10.7676C20.2278 10.7676 20.4638 10.8286 20.6638 10.9506C20.8638 11.0706 21.0178 11.2346 21.1258 11.4426C21.2358 11.6486 21.2908 11.8796 21.2908 12.1356C21.2908 12.4116 21.2258 12.6566 21.0958 12.8706C20.9678 13.0846 20.7948 13.2526 20.5768 13.3746C20.3608 13.4966 20.1178 13.5576 19.8478 13.5576Z" fill="#4C4C4C"/>
</svg>
