<svg width="22" height="16" viewBox="0 0 22 16" fill="none" xmlns="http://www.w3.org/2000/svg">
<rect x="0.2" y="0.2" width="21.2" height="15.6" rx="1.4" fill="white"/>
<rect x="0.2" y="0.2" width="21.2" height="15.6" rx="1.4" stroke="#DBDBDB" stroke-width="0.4"/>
<path fill-rule="evenodd" clip-rule="evenodd" d="M17.2204 6.87013C16.6907 5.24231 13.9905 4.00206 10.7478 4.00206C7.50507 4.00206 4.80495 5.24231 4.26234 6.87013C4.19774 6.67634 4.15898 6.48256 4.15898 6.27585C4.15898 4.35088 7.11749 2.80057 10.7478 2.80057C14.391 2.80057 17.3366 4.35088 17.3237 6.27585C17.3237 6.48256 17.2849 6.67634 17.2204 6.87013ZM17.2208 8.92638C16.6911 7.29856 13.991 6.05831 10.7482 6.05831C7.50549 6.05831 4.80537 7.29856 4.24984 8.92638C4.18524 8.73259 4.14648 8.53881 4.14648 8.3321C4.14648 6.40713 7.10499 4.85682 10.7353 4.85682C14.3785 4.85682 17.3241 6.42005 17.3241 8.3321C17.3241 8.53881 17.2854 8.73259 17.2208 8.92638ZM13.4485 12.3099L12.1049 10.5787H11.459V13.1496H12.0791V11.4701L13.4098 13.1496H14.0687V10.5787H13.4485V12.3099ZM2.87949 12.7473C3.04744 12.7473 3.20247 12.7085 3.33167 12.6181C3.44794 12.5276 3.53837 12.3984 3.60297 12.2047L4.24893 12.3597C4.14558 12.6439 3.99055 12.8506 3.758 12.9927C3.52546 13.1348 3.22831 13.1994 2.87949 13.1994C2.44024 13.1994 2.09142 13.0832 1.80719 12.8506C1.52297 12.6181 1.38086 12.2951 1.38086 11.8946C1.38086 11.4553 1.52297 11.1324 1.83303 10.8869C2.11726 10.6543 2.479 10.5381 2.94409 10.5381C3.34459 10.5381 3.68049 10.6285 3.92595 10.8094C4.08098 10.9256 4.18434 11.0807 4.26185 11.2874L3.60297 11.4037C3.56421 11.2745 3.47378 11.1711 3.35751 11.0936C3.22831 11.0161 3.0862 10.9773 2.90533 10.9773C2.65987 10.9773 2.46608 11.0419 2.31105 11.184C2.15601 11.3132 2.0785 11.5329 2.0785 11.8429C2.0785 12.1659 2.1431 12.3984 2.29813 12.5406C2.44024 12.6827 2.64695 12.7473 2.87949 12.7473ZM17.609 10.5787V11.0179H18.5908V13.1496H19.2497V11.0179H20.2187V10.5787H17.609ZM17.0903 12.0256H15.4366V12.7104H17.2712V13.1496H14.7777V10.5787H17.2066V11.0179H15.4366V11.5864H17.0903V12.0256ZM10.3075 12.2319C10.2171 12.1544 10.1008 12.0769 9.95872 12.0123C10.2429 11.9736 10.4626 11.896 10.6047 11.7798C10.7468 11.6506 10.8243 11.4955 10.8243 11.3018C10.8243 11.1467 10.7726 11.0175 10.6822 10.9013C10.5918 10.785 10.4626 10.6945 10.2946 10.6558C10.1396 10.6041 9.88121 10.5912 9.53239 10.5912H8.13711V13.1621H8.79599V12.0898H8.92518C9.08021 12.0898 9.18357 12.1027 9.26108 12.1157C9.32568 12.1286 9.4032 12.1673 9.45487 12.219C9.51947 12.2707 9.63574 12.3999 9.80369 12.5937L10.2817 13.1492H11.0698L10.6693 12.6454C10.5272 12.4516 10.4109 12.3095 10.3075 12.2319ZM8.79648 11.6751H9.28742C9.6104 11.6751 9.80419 11.6622 9.8817 11.6363C9.95922 11.6234 10.0238 11.5846 10.0626 11.533C10.1013 11.4813 10.1272 11.4167 10.1272 11.3392C10.1272 11.2617 10.1013 11.1841 10.0367 11.1325C9.98506 11.0808 9.89462 11.042 9.79127 11.0291C9.73959 11.0162 9.58456 11.0162 9.31325 11.0162H8.79648V11.6751ZM5.75987 10.5787L4.48086 13.1496H5.19142L5.46272 12.5683H6.78049L7.06471 13.1496H7.78819L6.47042 10.5787H5.75987ZM6.09824 11.1724L5.65898 12.1285H6.55041L6.09824 11.1724Z" fill="#D3262B"/>
</svg>
