<svg width="22" height="16" viewBox="0 0 22 16" fill="none" xmlns="http://www.w3.org/2000/svg">
<rect x="0.16" y="0.16" width="21.28" height="15.68" rx="1.44" fill="#252525" stroke="#252525" stroke-width="0.32"/>
<g clip-path="url(#clip0_204_46373)">
<rect width="13.6" height="14.4" transform="translate(3.99609 0.800781)" fill="#252525"/>
<path d="M12.5922 4.80908H9.24902V11.1706H12.5922V4.80908Z" fill="#FF5F00"/>
<path d="M9.46037 7.98917C9.45931 6.74742 9.9974 5.57534 10.9197 4.80894C9.26084 3.42785 6.85801 3.73239 5.5547 5.48882C4.25034 7.24637 4.53795 9.78942 6.1968 11.1694C7.58289 12.3224 9.5336 12.3224 10.9186 11.1694C9.99634 10.403 9.45825 9.22979 9.45931 7.98917H9.46037Z" fill="#EB001B"/>
<path d="M17.1021 7.98923C17.1021 10.2233 15.3913 12.0347 13.2814 12.0347C12.4249 12.0347 11.5939 11.7302 10.9199 11.1695C12.5788 9.78836 12.8664 7.24418 11.562 5.48775C11.3742 5.23491 11.1587 5.00679 10.9199 4.80788C12.5788 3.42679 14.9805 3.73133 16.2849 5.48888C16.8145 6.20134 17.1021 7.08236 17.1021 7.98923Z" fill="#F79E1B"/>
<path d="M16.7375 10.4963V10.3659H16.7874V10.339H16.6611V10.3659H16.711V10.4963H16.7386H16.7375ZM16.9827 10.4963V10.339H16.9445L16.8999 10.4469L16.8554 10.339H16.8171V10.4963H16.8447V10.3783L16.8861 10.4806H16.9148L16.9562 10.3783V10.4974H16.9838L16.9827 10.4963Z" fill="#F79E1B"/>
</g>
<defs>
<clipPath id="clip0_204_46373">
<rect width="13.6" height="14.4" fill="white" transform="translate(3.99609 0.800781)"/>
</clipPath>
</defs>
</svg>
