<svg width="44" height="15" viewBox="0 0 44 15" fill="none" xmlns="http://www.w3.org/2000/svg">
<g clip-path="url(#clip0_213_13791)">
<g clip-path="url(#clip1_213_13791)">
<path d="M9.63142 6.64903H10.9294C10.9787 6.64903 11.0116 6.64904 11.0444 6.6819C11.0444 6.6819 11.0444 6.6819 11.0444 6.69833V13.1226C11.0444 13.4019 11.3073 13.599 11.5866 13.5169C12.1945 13.2704 12.9832 12.9582 13.5583 12.6954C13.6568 12.6461 13.7883 12.5968 13.7883 12.3996V6.69833C13.7883 6.69833 13.7883 6.6819 13.7883 6.66547C13.7883 6.64904 13.7883 6.64903 13.7883 6.64903V2.73864C13.7883 2.50861 13.6075 2.32788 13.3775 2.32788H12.4081C12.2274 2.32788 12.0795 2.44289 12.0138 2.60719C11.6195 3.70802 10.8637 4.52953 9.73 4.7267C8.59632 4.92386 9.63142 4.74313 9.5657 4.74313C9.35211 4.77599 9.20424 4.94029 9.20424 5.15388V6.22185C9.20424 6.45187 9.38497 6.6326 9.61499 6.6326L9.63142 6.64903Z" fill="#D93A26"/>
<path d="M11.3402 1.88423C11.2909 1.83494 11.2088 1.78564 11.1266 1.78564H1.61349C1.31774 1.78564 1.07129 1.99924 1.07129 2.27855V3.72441C1.07129 4.06945 1.13701 4.23375 1.5642 4.23375H4.73523C4.81738 4.23375 4.88311 4.29947 4.88311 4.38162V5.59746V12.3667C4.88311 12.5146 4.98169 12.6296 5.12956 12.6953C5.40887 12.8103 6.37826 13.2868 6.70686 13.4675C7.03547 13.6483 7.61053 13.3361 7.61053 12.8761V4.61165C7.61053 4.59522 7.61053 4.54593 7.61053 4.54593C7.5941 4.43091 7.61053 4.3159 7.72554 4.26661C7.7584 4.26661 7.77483 4.26661 7.80769 4.26661H8.84279C11.1102 4.05302 11.3402 2.29498 11.3566 2.09782C11.3566 2.09782 11.3566 2.08139 11.3566 2.06496V2.01567C11.3566 1.96638 11.3566 1.93352 11.3073 1.90066L11.3402 1.88423Z" fill="#D93A26"/>
</g>
<path d="M40.3147 12.2826C39.6815 12.2826 39.1656 12.1428 38.767 11.8632C38.3685 11.5835 38.1242 11.1898 38.0342 10.6819L39.066 10.5228C39.1303 10.7928 39.2781 11.0066 39.5095 11.1641C39.7442 11.3183 40.0351 11.3955 40.3822 11.3955C40.6972 11.3955 40.9431 11.3312 41.1199 11.2026C41.2999 11.0741 41.3899 10.8973 41.3899 10.6723C41.3899 10.5405 41.3578 10.4344 41.2935 10.3541C41.2324 10.2705 41.1022 10.1917 40.9029 10.1178C40.7036 10.0439 40.3999 9.95227 39.9917 9.84298C39.5449 9.72727 39.1897 9.60352 38.9261 9.47173C38.6658 9.33673 38.4794 9.18084 38.3669 9.00405C38.2576 8.82405 38.2029 8.60709 38.2029 8.35316C38.2029 8.03816 38.2865 7.76334 38.4536 7.52869C38.6208 7.29405 38.8554 7.11244 39.1576 6.98387C39.4629 6.8553 39.8197 6.79102 40.2279 6.79102C40.6265 6.79102 40.9817 6.85369 41.2935 6.97905C41.6053 7.10441 41.8576 7.2828 42.0504 7.51423C42.2433 7.74244 42.359 8.01084 42.3976 8.31941L41.3658 8.50744C41.3304 8.25673 41.2131 8.05905 41.0138 7.91441C40.8145 7.76977 40.5558 7.69102 40.2376 7.67816C39.9322 7.6653 39.6847 7.71673 39.4951 7.83244C39.3054 7.94494 39.2106 8.10084 39.2106 8.30012C39.2106 8.41584 39.246 8.51387 39.3167 8.59423C39.3906 8.67459 39.532 8.75173 39.741 8.82566C39.9499 8.89959 40.2585 8.98798 40.6667 9.09084C41.1038 9.20334 41.451 9.32869 41.7081 9.46691C41.9653 9.60191 42.1485 9.76423 42.2578 9.95387C42.3703 10.1403 42.4265 10.3669 42.4265 10.6337C42.4265 11.148 42.2385 11.5514 41.8624 11.8439C41.4895 12.1364 40.9736 12.2826 40.3147 12.2826Z" fill="black"/>
<path d="M34.8025 12.2874C34.2818 12.2874 33.8302 12.1701 33.4477 11.9355C33.0652 11.7008 32.7695 11.3778 32.5605 10.9664C32.3548 10.5517 32.252 10.0744 32.252 9.53441C32.252 8.99119 32.358 8.51387 32.5702 8.10244C32.7823 7.6878 33.0796 7.36637 33.4621 7.13816C33.8446 6.90673 34.2914 6.79102 34.8025 6.79102C35.3232 6.79102 35.7748 6.90834 36.1573 7.14298C36.5398 7.37762 36.8355 7.70066 37.0445 8.11209C37.2534 8.52352 37.3578 8.99762 37.3578 9.53441C37.3578 10.0776 37.2518 10.5566 37.0396 10.9712C36.8307 11.3826 36.535 11.7057 36.1525 11.9403C35.77 12.1717 35.32 12.2874 34.8025 12.2874ZM34.8025 11.3376C35.3007 11.3376 35.672 11.1705 35.9162 10.8362C36.1637 10.4987 36.2875 10.0648 36.2875 9.53441C36.2875 8.99119 36.1621 8.55727 35.9114 8.23262C35.6639 7.90477 35.2943 7.74084 34.8025 7.74084C34.465 7.74084 34.187 7.81798 33.9684 7.97227C33.7498 8.12334 33.5875 8.33387 33.4814 8.60387C33.3753 8.87066 33.3223 9.18084 33.3223 9.53441C33.3223 10.0808 33.4477 10.518 33.6984 10.8458C33.9491 11.1737 34.3171 11.3376 34.8025 11.3376Z" fill="black"/>
<path d="M28.8206 14.6017C28.5409 14.6017 28.2693 14.5583 28.0057 14.4716C27.7454 14.3848 27.5075 14.2562 27.2922 14.0858C27.0768 13.9187 26.8984 13.7114 26.757 13.4639L27.6875 12.9914C27.8 13.2132 27.9607 13.3755 28.1697 13.4783C28.3786 13.5812 28.5988 13.6326 28.8302 13.6326C29.1163 13.6326 29.3606 13.5812 29.5631 13.4783C29.7656 13.3787 29.9182 13.2276 30.0211 13.0251C30.1272 12.8226 30.1786 12.5719 30.1754 12.273V10.8169H30.2959V6.93566H31.1879V12.2826C31.1879 12.4208 31.1831 12.5526 31.1734 12.678C31.1638 12.8033 31.1461 12.9287 31.1204 13.0541C31.0465 13.4044 30.905 13.6937 30.6961 13.9219C30.4904 14.1501 30.2268 14.3205 29.9054 14.433C29.5872 14.5455 29.2256 14.6017 28.8206 14.6017ZM28.7434 12.2874C28.2581 12.2874 27.8386 12.1669 27.485 11.9258C27.1347 11.6848 26.8631 11.3569 26.6702 10.9423C26.4806 10.5244 26.3857 10.0551 26.3857 9.53441C26.3857 9.01048 26.4822 8.5428 26.675 8.13137C26.8679 7.71673 27.1411 7.39048 27.4947 7.15262C27.8515 6.91155 28.2741 6.79102 28.7627 6.79102C29.2545 6.79102 29.6675 6.91155 30.0018 7.15262C30.3393 7.39048 30.5932 7.71673 30.7636 8.13137C30.9372 8.54602 31.024 9.01369 31.024 9.53441C31.024 10.0551 30.9372 10.5228 30.7636 10.9374C30.59 11.3521 30.3345 11.6816 29.997 11.9258C29.6595 12.1669 29.2416 12.2874 28.7434 12.2874ZM28.8832 11.3762C29.2143 11.3762 29.4843 11.2974 29.6932 11.1399C29.9022 10.9824 30.0548 10.7655 30.1513 10.4891C30.2477 10.2126 30.2959 9.89441 30.2959 9.53441C30.2959 9.17441 30.2461 8.85619 30.1465 8.57977C30.05 8.30334 29.899 8.08798 29.6932 7.93369C29.4907 7.77941 29.232 7.70227 28.917 7.70227C28.5827 7.70227 28.3079 7.78423 28.0925 7.94816C27.8772 8.11209 27.7165 8.33227 27.6104 8.60869C27.5075 8.88512 27.4561 9.19369 27.4561 9.53441C27.4561 9.87834 27.5075 10.1901 27.6104 10.4698C27.7165 10.7462 27.874 10.9664 28.0829 11.1303C28.295 11.2942 28.5618 11.3762 28.8832 11.3762Z" fill="black"/>
<path d="M22.6553 12.2874C22.2696 12.2874 21.9466 12.2167 21.6862 12.0753C21.4259 11.9307 21.2282 11.741 21.0932 11.5064C20.9614 11.2685 20.8955 11.0082 20.8955 10.7253C20.8955 10.4617 20.9421 10.2303 21.0353 10.031C21.1285 9.83173 21.2668 9.66298 21.45 9.52477C21.6332 9.38334 21.8582 9.26923 22.125 9.18244C22.3564 9.11494 22.6184 9.05548 22.9109 9.00405C23.2034 8.95262 23.5103 8.90441 23.8318 8.85941C24.1564 8.81441 24.4778 8.76941 24.796 8.72441L24.4296 8.92691C24.436 8.51869 24.3493 8.21655 24.1693 8.02048C23.9925 7.82119 23.6871 7.72155 23.2532 7.72155C22.98 7.72155 22.7293 7.78584 22.501 7.91441C22.2728 8.03977 22.1137 8.24869 22.0237 8.54119L21.0835 8.25191C21.2121 7.80512 21.4564 7.44994 21.8164 7.18637C22.1796 6.9228 22.6618 6.79102 23.2628 6.79102C23.7289 6.79102 24.1339 6.87137 24.4778 7.03209C24.825 7.18959 25.0789 7.4403 25.2396 7.78423C25.3232 7.95459 25.3746 8.13459 25.3939 8.32423C25.4132 8.51387 25.4228 8.71798 25.4228 8.93655V12.1428H24.5309V10.9519L24.7044 11.1062C24.4891 11.5048 24.2143 11.8021 23.88 11.9982C23.5489 12.191 23.1407 12.2874 22.6553 12.2874ZM22.8337 11.463C23.1198 11.463 23.3657 11.4132 23.5714 11.3135C23.7771 11.2107 23.9427 11.0805 24.068 10.923C24.1934 10.7655 24.2753 10.6016 24.3139 10.4312C24.3685 10.2769 24.3991 10.1033 24.4055 9.91048C24.4152 9.71762 24.42 9.56334 24.42 9.44762L24.7478 9.56816C24.4296 9.61637 24.1403 9.65977 23.88 9.69834C23.6196 9.73691 23.3834 9.77548 23.1712 9.81405C22.9623 9.84941 22.7759 9.8928 22.6119 9.94423C22.4737 9.99244 22.35 10.0503 22.2407 10.1178C22.1346 10.1853 22.0494 10.2673 21.9852 10.3637C21.9241 10.4601 21.8935 10.5774 21.8935 10.7157C21.8935 10.8507 21.9273 10.976 21.9948 11.0917C22.0623 11.2042 22.1652 11.2942 22.3034 11.3617C22.4416 11.4292 22.6184 11.463 22.8337 11.463Z" fill="black"/>
<path d="M17.7628 12.2874C17.2645 12.2874 16.8467 12.1669 16.5092 11.9258C16.1717 11.6816 15.9162 11.3521 15.7426 10.9374C15.569 10.5228 15.4822 10.0551 15.4822 9.53441C15.4822 9.01369 15.5674 8.54602 15.7378 8.13137C15.9113 7.71673 16.1653 7.39048 16.4995 7.15262C16.837 6.91155 17.2517 6.79102 17.7435 6.79102C18.232 6.79102 18.6531 6.91155 19.0067 7.15262C19.3635 7.39048 19.6383 7.71673 19.8312 8.13137C20.024 8.5428 20.1204 9.01048 20.1204 9.53441C20.1204 10.0551 20.024 10.5244 19.8312 10.9423C19.6415 11.3569 19.3699 11.6848 19.0163 11.9258C18.666 12.1669 18.2481 12.2874 17.7628 12.2874ZM15.3135 14.4571V6.93566H16.2103V10.6819H16.326V14.4571H15.3135ZM17.6229 11.3762C17.9444 11.3762 18.2095 11.2942 18.4185 11.1303C18.6306 10.9664 18.7881 10.7462 18.891 10.4698C18.997 10.1901 19.0501 9.87834 19.0501 9.53441C19.0501 9.19369 18.997 8.88512 18.891 8.60869C18.7881 8.33227 18.629 8.11209 18.4137 7.94816C18.1983 7.78423 17.9235 7.70227 17.5892 7.70227C17.2742 7.70227 17.0138 7.77941 16.8081 7.93369C16.6056 8.08798 16.4545 8.30334 16.3549 8.57977C16.2585 8.85619 16.2103 9.17441 16.2103 9.53441C16.2103 9.89441 16.2585 10.2126 16.3549 10.4891C16.4513 10.7655 16.604 10.9824 16.8129 11.1399C17.0219 11.2974 17.2919 11.3762 17.6229 11.3762Z" fill="black"/>
</g>
<defs>
<clipPath id="clip0_213_13791">
<rect width="43.5714" height="15" fill="white"/>
</clipPath>
<clipPath id="clip1_213_13791">
<rect width="15.3571" height="15" fill="white"/>
</clipPath>
</defs>
</svg>
