<svg width="44" height="15" viewBox="0 0 44 15" fill="none" xmlns="http://www.w3.org/2000/svg">
<g clip-path="url(#clip0_205_13130)">
<g clip-path="url(#clip1_205_13130)">
<path d="M9.63142 6.64907H10.9294C10.9787 6.64907 11.0116 6.64907 11.0444 6.68193C11.0444 6.68193 11.0444 6.68193 11.0444 6.69836V13.1226C11.0444 13.4019 11.3073 13.5991 11.5866 13.5169C12.1945 13.2705 12.9832 12.9583 13.5583 12.6954C13.6568 12.6461 13.7883 12.5968 13.7883 12.3997V6.69836C13.7883 6.69836 13.7883 6.68193 13.7883 6.6655C13.7883 6.64907 13.7883 6.64907 13.7883 6.64907V2.73867C13.7883 2.50864 13.6075 2.32791 13.3775 2.32791H12.4081C12.2274 2.32791 12.0795 2.44292 12.0138 2.60723C11.6195 3.70805 10.8637 4.52956 9.73 4.72673C8.59632 4.92389 9.63142 4.74316 9.5657 4.74316C9.35211 4.77602 9.20424 4.94032 9.20424 5.15391V6.22188C9.20424 6.4519 9.38497 6.63264 9.61499 6.63264L9.63142 6.64907Z" fill="#D93A26"/>
<path d="M11.3402 1.88429C11.2909 1.835 11.2088 1.78571 11.1266 1.78571H1.61349C1.31774 1.78571 1.07129 1.9993 1.07129 2.27861V3.72448C1.07129 4.06951 1.13701 4.23381 1.5642 4.23381H4.73523C4.81738 4.23381 4.88311 4.29953 4.88311 4.38168V5.59752V12.3668C4.88311 12.5147 4.98169 12.6297 5.12956 12.6954C5.40887 12.8104 6.37826 13.2869 6.70686 13.4676C7.03547 13.6483 7.61053 13.3362 7.61053 12.8761V4.61171C7.61053 4.59528 7.61053 4.54599 7.61053 4.54599C7.5941 4.43098 7.61053 4.31596 7.72554 4.26667C7.7584 4.26667 7.77483 4.26667 7.80769 4.26667H8.84279C11.1102 4.05308 11.3402 2.29504 11.3566 2.09788C11.3566 2.09788 11.3566 2.08145 11.3566 2.06502V2.01573C11.3566 1.96644 11.3566 1.93358 11.3073 1.90072L11.3402 1.88429Z" fill="#D93A26"/>
</g>
<path d="M40.3147 12.2827C39.6815 12.2827 39.1656 12.1429 38.767 11.8632C38.3685 11.5836 38.1242 11.1898 38.0342 10.682L39.066 10.5229C39.1303 10.7929 39.2781 11.0066 39.5095 11.1641C39.7442 11.3184 40.0351 11.3955 40.3822 11.3955C40.6972 11.3955 40.9431 11.3313 41.1199 11.2027C41.2999 11.0741 41.3899 10.8973 41.3899 10.6723C41.3899 10.5405 41.3578 10.4345 41.2935 10.3541C41.2324 10.2705 41.1022 10.1918 40.9029 10.1179C40.7036 10.0439 40.3999 9.95233 39.9917 9.84304C39.5449 9.72733 39.1897 9.60358 38.9261 9.47179C38.6658 9.33679 38.4794 9.1809 38.3669 9.00411C38.2576 8.82411 38.2029 8.60715 38.2029 8.35322C38.2029 8.03822 38.2865 7.7634 38.4536 7.52876C38.6208 7.29411 38.8554 7.11251 39.1576 6.98393C39.4629 6.85536 39.8197 6.79108 40.2279 6.79108C40.6265 6.79108 40.9817 6.85376 41.2935 6.97911C41.6053 7.10447 41.8576 7.28286 42.0504 7.51429C42.2433 7.74251 42.359 8.0109 42.3976 8.31947L41.3658 8.50751C41.3304 8.25679 41.2131 8.05911 41.0138 7.91447C40.8145 7.76983 40.5558 7.69108 40.2376 7.67822C39.9322 7.66536 39.6847 7.71679 39.4951 7.83251C39.3054 7.94501 39.2106 8.1009 39.2106 8.30018C39.2106 8.4159 39.246 8.51393 39.3167 8.59429C39.3906 8.67465 39.532 8.75179 39.741 8.82572C39.9499 8.89965 40.2585 8.98804 40.6667 9.0909C41.1038 9.2034 41.451 9.32876 41.7081 9.46697C41.9653 9.60197 42.1485 9.76429 42.2578 9.95393C42.3703 10.1404 42.4265 10.367 42.4265 10.6338C42.4265 11.148 42.2385 11.5514 41.8624 11.8439C41.4895 12.1364 40.9736 12.2827 40.3147 12.2827Z" fill="black"/>
<path d="M34.8025 12.2875C34.2818 12.2875 33.8302 12.1702 33.4477 11.9355C33.0652 11.7009 32.7695 11.3779 32.5605 10.9664C32.3548 10.5518 32.252 10.0745 32.252 9.53447C32.252 8.99126 32.358 8.51393 32.5702 8.1025C32.7823 7.68786 33.0796 7.36643 33.4621 7.13822C33.8446 6.90679 34.2914 6.79108 34.8025 6.79108C35.3232 6.79108 35.7748 6.9084 36.1573 7.14304C36.5398 7.37768 36.8355 7.70072 37.0445 8.11215C37.2534 8.52358 37.3578 8.99768 37.3578 9.53447C37.3578 10.0777 37.2518 10.5566 37.0396 10.9713C36.8307 11.3827 36.535 11.7057 36.1525 11.9404C35.77 12.1718 35.32 12.2875 34.8025 12.2875ZM34.8025 11.3377C35.3007 11.3377 35.672 11.1705 35.9162 10.8363C36.1637 10.4988 36.2875 10.0648 36.2875 9.53447C36.2875 8.99126 36.1621 8.55733 35.9114 8.23268C35.6639 7.90483 35.2943 7.7409 34.8025 7.7409C34.465 7.7409 34.187 7.81804 33.9684 7.97233C33.7498 8.1234 33.5875 8.33393 33.4814 8.60393C33.3753 8.87072 33.3223 9.1809 33.3223 9.53447C33.3223 10.0809 33.4477 10.518 33.6984 10.8459C33.9491 11.1738 34.3171 11.3377 34.8025 11.3377Z" fill="black"/>
<path d="M28.8206 14.6018C28.5409 14.6018 28.2693 14.5584 28.0057 14.4716C27.7454 14.3848 27.5075 14.2563 27.2922 14.0859C27.0768 13.9188 26.8984 13.7114 26.757 13.4639L27.6875 12.9914C27.8 13.2132 27.9607 13.3755 28.1697 13.4784C28.3786 13.5813 28.5988 13.6327 28.8302 13.6327C29.1163 13.6327 29.3606 13.5813 29.5631 13.4784C29.7656 13.3788 29.9182 13.2277 30.0211 13.0252C30.1272 12.8227 30.1786 12.572 30.1754 12.273V10.817H30.2959V6.93572H31.1879V12.2827C31.1879 12.4209 31.1831 12.5527 31.1734 12.678C31.1638 12.8034 31.1461 12.9288 31.1204 13.0541C31.0465 13.4045 30.905 13.6938 30.6961 13.922C30.4904 14.1502 30.2268 14.3205 29.9054 14.433C29.5872 14.5455 29.2256 14.6018 28.8206 14.6018ZM28.7434 12.2875C28.2581 12.2875 27.8386 12.167 27.485 11.9259C27.1347 11.6848 26.8631 11.357 26.6702 10.9423C26.4806 10.5245 26.3857 10.0552 26.3857 9.53447C26.3857 9.01054 26.4822 8.54286 26.675 8.13143C26.8679 7.71679 27.1411 7.39054 27.4947 7.15268C27.8515 6.91161 28.2741 6.79108 28.7627 6.79108C29.2545 6.79108 29.6675 6.91161 30.0018 7.15268C30.3393 7.39054 30.5932 7.71679 30.7636 8.13143C30.9372 8.54608 31.024 9.01376 31.024 9.53447C31.024 10.0552 30.9372 10.5229 30.7636 10.9375C30.59 11.3521 30.3345 11.6816 29.997 11.9259C29.6595 12.167 29.2416 12.2875 28.7434 12.2875ZM28.8832 11.3763C29.2143 11.3763 29.4843 11.2975 29.6932 11.14C29.9022 10.9825 30.0548 10.7655 30.1513 10.4891C30.2477 10.2127 30.2959 9.89447 30.2959 9.53447C30.2959 9.17447 30.2461 8.85626 30.1465 8.57983C30.05 8.3034 29.899 8.08804 29.6932 7.93376C29.4907 7.77947 29.232 7.70233 28.917 7.70233C28.5827 7.70233 28.3079 7.78429 28.0925 7.94822C27.8772 8.11215 27.7165 8.33233 27.6104 8.60876C27.5075 8.88518 27.4561 9.19376 27.4561 9.53447C27.4561 9.8784 27.5075 10.1902 27.6104 10.4698C27.7165 10.7463 27.874 10.9664 28.0829 11.1304C28.295 11.2943 28.5618 11.3763 28.8832 11.3763Z" fill="black"/>
<path d="M22.6553 12.2875C22.2696 12.2875 21.9466 12.2168 21.6862 12.0754C21.4259 11.9307 21.2282 11.7411 21.0932 11.5064C20.9614 11.2686 20.8955 11.0082 20.8955 10.7254C20.8955 10.4618 20.9421 10.2304 21.0353 10.0311C21.1285 9.83179 21.2668 9.66304 21.45 9.52483C21.6332 9.3834 21.8582 9.26929 22.125 9.18251C22.3564 9.11501 22.6184 9.05554 22.9109 9.00411C23.2034 8.95268 23.5103 8.90447 23.8318 8.85947C24.1564 8.81447 24.4778 8.76947 24.796 8.72447L24.4296 8.92697C24.436 8.51876 24.3493 8.21661 24.1693 8.02054C23.9925 7.82126 23.6871 7.72161 23.2532 7.72161C22.98 7.72161 22.7293 7.7859 22.501 7.91447C22.2728 8.03983 22.1137 8.24875 22.0237 8.54125L21.0835 8.25197C21.2121 7.80518 21.4564 7.45001 21.8164 7.18643C22.1796 6.92286 22.6618 6.79108 23.2628 6.79108C23.7289 6.79108 24.1339 6.87143 24.4778 7.03215C24.825 7.18965 25.0789 7.44036 25.2396 7.78429C25.3232 7.95465 25.3746 8.13465 25.3939 8.32429C25.4132 8.51393 25.4228 8.71804 25.4228 8.93661V12.1429H24.5309V10.952L24.7044 11.1063C24.4891 11.5048 24.2143 11.8021 23.88 11.9982C23.5489 12.1911 23.1407 12.2875 22.6553 12.2875ZM22.8337 11.463C23.1198 11.463 23.3657 11.4132 23.5714 11.3136C23.7771 11.2107 23.9427 11.0805 24.068 10.923C24.1934 10.7655 24.2753 10.6016 24.3139 10.4313C24.3685 10.277 24.3991 10.1034 24.4055 9.91054C24.4152 9.71768 24.42 9.5634 24.42 9.44768L24.7478 9.56822C24.4296 9.61643 24.1403 9.65983 23.88 9.6984C23.6196 9.73697 23.3834 9.77554 23.1712 9.81411C22.9623 9.84947 22.7759 9.89286 22.6119 9.94429C22.4737 9.99251 22.35 10.0504 22.2407 10.1179C22.1346 10.1854 22.0494 10.2673 21.9852 10.3638C21.9241 10.4602 21.8935 10.5775 21.8935 10.7157C21.8935 10.8507 21.9273 10.9761 21.9948 11.0918C22.0623 11.2043 22.1652 11.2943 22.3034 11.3618C22.4416 11.4293 22.6184 11.463 22.8337 11.463Z" fill="black"/>
<path d="M17.7628 12.2875C17.2645 12.2875 16.8467 12.167 16.5092 11.9259C16.1717 11.6816 15.9162 11.3521 15.7426 10.9375C15.569 10.5229 15.4822 10.0552 15.4822 9.53447C15.4822 9.01376 15.5674 8.54608 15.7378 8.13143C15.9113 7.71679 16.1653 7.39054 16.4995 7.15268C16.837 6.91161 17.2517 6.79108 17.7435 6.79108C18.232 6.79108 18.6531 6.91161 19.0067 7.15268C19.3635 7.39054 19.6383 7.71679 19.8312 8.13143C20.024 8.54286 20.1204 9.01054 20.1204 9.53447C20.1204 10.0552 20.024 10.5245 19.8312 10.9423C19.6415 11.357 19.3699 11.6848 19.0163 11.9259C18.666 12.167 18.2481 12.2875 17.7628 12.2875ZM15.3135 14.4571V6.93572H16.2103V10.682H16.326V14.4571H15.3135ZM17.6229 11.3763C17.9444 11.3763 18.2095 11.2943 18.4185 11.1304C18.6306 10.9664 18.7881 10.7463 18.891 10.4698C18.997 10.1902 19.0501 9.8784 19.0501 9.53447C19.0501 9.19376 18.997 8.88518 18.891 8.60876C18.7881 8.33233 18.629 8.11215 18.4137 7.94822C18.1983 7.78429 17.9235 7.70233 17.5892 7.70233C17.2742 7.70233 17.0138 7.77947 16.8081 7.93376C16.6056 8.08804 16.4545 8.3034 16.3549 8.57983C16.2585 8.85626 16.2103 9.17447 16.2103 9.53447C16.2103 9.89447 16.2585 10.2127 16.3549 10.4891C16.4513 10.7655 16.604 10.9825 16.8129 11.14C17.0219 11.2975 17.2919 11.3763 17.6229 11.3763Z" fill="black"/>
</g>
<defs>
<clipPath id="clip0_205_13130">
<rect width="43.5714" height="15" fill="white"/>
</clipPath>
<clipPath id="clip1_205_13130">
<rect width="15.3571" height="15" fill="white"/>
</clipPath>
</defs>
</svg>
