<svg width="22" height="16" viewBox="0 0 22 16" fill="none" xmlns="http://www.w3.org/2000/svg">
<rect x="0.16" y="0.16" width="21.28" height="15.68" rx="1.44" fill="white" stroke="#CCCCCC" stroke-width="0.32"/>
<path d="M8.89215 4.86144L6.74529 10.8744H5.34462L4.28814 6.07579C4.224 5.78022 4.16823 5.67194 3.97316 5.54742C3.65468 5.34459 3.12875 5.1543 2.66602 5.03619L2.69745 4.86144H4.95209C5.23949 4.86144 5.49784 5.08602 5.56309 5.47453L6.12105 8.95395L7.50003 4.86134H8.89215V4.86144ZM14.3802 8.91124C14.3858 7.32423 12.5108 7.2368 12.5237 6.52786C12.5277 6.3121 12.7027 6.08271 13.0858 6.02416C13.2756 5.99498 13.7988 5.97272 14.3921 6.29325L14.6248 5.01815C14.306 4.8823 13.8958 4.75156 13.3854 4.75156C12.0757 4.75156 11.154 5.56888 11.1462 6.73921C11.1377 7.60485 11.8041 8.08791 12.3061 8.37555C12.8226 8.67011 12.9959 8.85941 12.9939 9.12289C12.9902 9.52623 12.582 9.7043 12.2005 9.71131C11.5345 9.72334 11.148 9.49977 10.8399 9.33163L10.5998 10.6489C10.9094 10.8157 11.4808 10.9612 12.0733 10.9685C13.4653 10.9685 14.3759 10.1613 14.3802 8.91124ZM17.8387 10.8744H19.0642L17.9944 4.86144H16.8633C16.609 4.86144 16.3944 5.03529 16.2995 5.30258L14.3111 10.8744H15.7025L15.9787 9.9763H17.6787L17.8387 10.8744ZM16.3602 8.74391L17.0576 6.48625L17.459 8.74391H16.3602ZM10.7854 4.86144L9.68968 10.8744H8.36468L9.46079 4.86144H10.7854Z" fill="#1434CB"/>
</svg>
