<svg width="36" height="36" viewBox="0 0 36 36" fill="none" xmlns="http://www.w3.org/2000/svg">
<g id="Group">
<path id="Vector" d="M9.20455 0.654549C8.55 0.981819 6.17727 3.06818 4.00909 5.23636L0 9.20455V12.1909C0 15.5864 0.695455 17.6318 2.20909 18.6136L3.27273 19.3091V25.5273C3.27273 32.6045 3.68182 34.0773 6.13636 35.2636C7.40455 35.9182 8.87727 36 18 36C27.1227 36 28.5955 35.9182 29.8636 35.2636C32.3182 34.0773 32.7273 32.6045 32.7273 25.5273V19.3091L33.7909 18.6136C35.3045 17.6318 36 15.5864 36 12.15V9.12273L31.5818 4.82727C28.3909 1.67727 26.8364 0.49091 25.8136 0.286366C25.0773 0.12273 21.2727 0 17.4273 0C11.9455 0 10.1864 0.12273 9.20455 0.654549ZM28.0227 5.72727L30.4364 8.18182H18H5.56364L7.97727 5.72727L10.3909 3.27273H18H25.6091L28.0227 5.72727ZM32.7273 13.6636C32.7273 15.5864 32.6045 15.9545 31.8682 16.1591C31.3773 16.3227 30.3545 16.1591 29.4136 15.75C27.9 15.0545 27.7364 15.0545 26.1818 15.75C24.5864 16.4455 24.5045 16.4455 22.9091 15.75C21.3136 15.0545 21.2318 15.0545 19.6364 15.75C18.0409 16.4455 17.9591 16.4455 16.3636 15.75C14.7682 15.0545 14.6864 15.0545 13.0909 15.75C11.4955 16.4455 11.4136 16.4455 9.81818 15.75C8.26364 15.0545 8.05909 15.0545 6.70909 15.6682C3.96818 17.0182 3.27273 16.5273 3.27273 13.2545V11.4545H18H32.7273V13.6636ZM9.61364 19.0636C11.1273 19.6773 13.1727 19.5545 14.1545 18.7773C14.4409 18.5318 15.2182 18.6545 16.1591 19.0227C17.6727 19.6773 19.7182 19.5545 20.7 18.7773C20.9864 18.5318 21.7636 18.6545 22.7045 19.0227C24.2182 19.6773 26.2636 19.5545 27.2864 18.7364C27.5727 18.4909 28.0636 18.5318 28.5955 18.8182C29.4136 19.2273 29.4545 19.5955 29.4545 25.7318C29.4545 33.0136 29.5773 32.7273 26.3455 32.7273H24.5455V29.9455C24.5455 25.0364 22.5818 22.9091 18 22.9091C13.4182 22.9091 11.4545 25.0364 11.4545 29.9455V32.7273H9.24545C7.60909 32.7273 6.99545 32.5636 6.79091 32.0727C6.66818 31.7045 6.54545 28.7591 6.54545 25.4864C6.54545 20.2909 6.62727 19.4727 7.28182 18.9818C7.65 18.6955 8.01818 18.4091 8.01818 18.4091C8.05909 18.4091 8.75455 18.6955 9.61364 19.0636ZM21.0273 26.8364C21.15 27.2045 21.2727 28.6773 21.2727 30.1091V32.7273H18H14.7273V29.7C14.7273 27.6545 14.8909 26.5909 15.2591 26.4682C15.5045 26.3455 16.8955 26.2227 18.2455 26.2227C20.2091 26.1818 20.8227 26.3455 21.0273 26.8364Z" fill="#DB3A28"/>
</g>
</svg>
