<svg width="24" height="24" viewBox="0 0 24 24" fill="none" xmlns="http://www.w3.org/2000/svg">
<path fill-rule="evenodd" clip-rule="evenodd" d="M12.5 3C7.80375 3 4 6.80375 4 11.5C4 16.1962 7.80375 20 12.5 20C17.1962 20 21 16.1962 21 11.5C21 6.80375 17.1962 3 12.5 3ZM12.5 18.9375C8.39875 18.9375 5.0625 15.6012 5.0625 11.5C5.0625 7.39875 8.39875 4.0625 12.5 4.0625C16.6012 4.0625 19.9375 7.39875 19.9375 11.5C19.9375 15.6012 16.6012 18.9375 12.5 18.9375Z" fill="#2180FF"/>
<path d="M12.5 8.08942C12.9401 8.08942 13.2969 7.73264 13.2969 7.29254C13.2969 6.85244 12.9401 6.49567 12.5 6.49567C12.0599 6.49567 11.7031 6.85244 11.7031 7.29254C11.7031 7.73264 12.0599 8.08942 12.5 8.08942Z" fill="#2180FF"/>
<path fill-rule="evenodd" clip-rule="evenodd" d="M12.5 16.5044C12.0538 16.5044 11.7031 16.1538 11.7031 15.7075V9.68317C11.7031 9.23692 12.0538 8.88629 12.5 8.88629C12.9462 8.88629 13.2969 9.23692 13.2969 9.68317V15.7075C13.2969 16.1538 12.9462 16.5044 12.5 16.5044Z" fill="#2180FF"/>
</svg>
