<svg width="71" height="72" viewBox="0 0 71 72" fill="none" xmlns="http://www.w3.org/2000/svg">
<g id="Logo T1 P&#195;&#161;ginas">
<path id="Fill 96" fill-rule="evenodd" clip-rule="evenodd" d="M46.5383 27.0929H54.6973C54.9409 27.0929 55.1751 27.1598 55.3805 27.2781C55.3785 27.3136 55.3754 27.349 55.3754 27.3849V43.0519V49.6209V58.0688V59.1881V60.0891V64.4853C55.3754 65.399 56.2597 66.0507 57.1297 65.7774L58.4028 65.3779C61.7708 64.0448 65.7887 62.6064 70.5582 61.1076C70.6424 60.9295 70.6917 60.7328 70.6917 60.5268V59.1881V58.0688V27.3849C70.6917 27.3228 70.6873 27.2618 70.6806 27.2013V27.0929H70.6917V4.3399C70.6917 3.58031 70.0769 2.96411 69.3189 2.96411H62.2947C61.7052 2.96411 61.183 3.34172 60.9954 3.90135C58.8408 10.3266 54.5956 15.1673 48.0721 16.3376C47.5387 16.4332 46.9898 16.5045 46.4259 16.5499C45.714 16.6072 45.1655 17.2035 45.1655 17.9193V25.7175C45.1655 26.4771 45.7804 27.0929 46.5383 27.0929Z" fill="white"/>
<path id="Fill 97" fill-rule="evenodd" clip-rule="evenodd" d="M57.168 0.50865C56.8612 0.19398 56.4403 0 55.9745 0H22.3672H21.1041H3.01351C1.34896 0 0 1.22482 0 2.73604V12.5916C0 13.1281 0.478934 13.5627 1.06955 13.5627H21.3148V21.1514C21.3148 21.1809 21.3088 21.2068 21.3064 21.2347V65.9075C21.3064 66.3177 21.5747 66.6782 21.9654 66.7997C26.986 68.3591 31.521 70.2407 35.1132 71.9121C35.7309 72.1993 36.436 71.748 36.436 71.0653V15.6977C36.436 15.5861 36.4149 15.4766 36.3914 15.3679C36.2607 14.7632 36.496 14.0598 37.0997 13.8192C37.238 13.7642 37.3954 13.7332 37.5719 13.7332H43.3668C43.3886 13.7308 43.4037 13.7292 43.4037 13.7292C56.0158 12.4964 57.3095 2.73365 57.416 1.62911C57.4188 1.56738 57.4216 1.50803 57.4244 1.44669V1.17703C57.4244 0.928476 57.3385 0.683113 57.168 0.50865Z" fill="white"/>
</g>
</svg>
