<svg width="90" height="30" viewBox="0 0 90 30" fill="none" xmlns="http://www.w3.org/2000/svg">
<g clip-path="url(#clip0_213_15217)">
<path d="M19.2628 13.2981H21.8588C21.9574 13.2981 22.0231 13.2981 22.0888 13.3638C22.0888 13.3638 22.0888 13.3638 22.0888 13.3967V26.2451C22.0888 26.8037 22.6146 27.1981 23.1732 27.0338C24.3891 26.5408 25.9664 25.9165 27.1165 25.3907C27.3137 25.2921 27.5765 25.1936 27.5765 24.7992V13.3967C27.5765 13.3967 27.5765 13.3638 27.5765 13.3309C27.5765 13.2981 27.5765 13.2981 27.5765 13.2981V5.47727C27.5765 5.01723 27.2151 4.65576 26.755 4.65576H24.8163C24.4548 4.65576 24.1591 4.88578 24.0276 5.21439C23.239 7.41604 21.7274 9.05907 19.46 9.45339C17.1926 9.84772 19.2628 9.48625 19.1314 9.48625C18.7042 9.55197 18.4085 9.88058 18.4085 10.3078V12.4437C18.4085 12.9037 18.7699 13.2652 19.23 13.2652L19.2628 13.2981Z" fill="#D93A26"/>
<path d="M22.6804 3.76845C22.5818 3.66987 22.4175 3.57129 22.2532 3.57129H3.22697C2.63549 3.57129 2.14258 3.99848 2.14258 4.5571V7.44883C2.14258 8.1389 2.27402 8.4675 3.12839 8.4675H9.47047C9.63477 8.4675 9.76621 8.59895 9.76621 8.76325V11.1949V24.7334C9.76621 25.0292 9.96338 25.2592 10.2591 25.3907C10.8177 25.6207 12.7565 26.5736 13.4137 26.9351C14.0709 27.2966 15.2211 26.6722 15.2211 25.7521V9.22329C15.2211 9.19043 15.2211 9.09185 15.2211 9.09185C15.1882 8.86183 15.2211 8.63181 15.4511 8.53322C15.5168 8.53322 15.5497 8.53322 15.6154 8.53322H17.6856C22.2203 8.10604 22.6804 4.58996 22.7132 4.19564C22.7132 4.19564 22.7132 4.16278 22.7132 4.12992V4.03134C22.7132 3.93275 22.7132 3.86703 22.6147 3.80131L22.6804 3.76845Z" fill="#D93A26"/>
</g>
<path d="M36.5954 23.5713C35.9397 23.6999 35.2968 23.7545 34.6668 23.7352C34.0368 23.7159 33.4743 23.5938 32.9793 23.3688C32.4843 23.1438 32.1115 22.7902 31.8608 22.3081C31.6358 21.8774 31.5136 21.4402 31.4943 20.9966C31.4815 20.5466 31.4751 20.0388 31.4751 19.4731V10.2641H33.5001V19.3766C33.5001 19.7945 33.5033 20.1577 33.5097 20.4663C33.5226 20.7749 33.5901 21.0352 33.7122 21.2474C33.9436 21.6459 34.3101 21.8741 34.8115 21.932C35.3193 21.9834 35.914 21.9609 36.5954 21.8645V23.5713ZM29.479 14.777V13.157H36.5954V14.777H29.479ZM38.984 11.4502V9.49272H40.9993V11.4502H38.984ZM38.984 23.5713V13.157H40.9993V23.5713H38.984ZM48.514 23.8606C47.479 23.8606 46.5693 23.6356 45.7851 23.1856C45.0072 22.7291 44.3997 22.0959 43.9626 21.2859C43.5318 20.4695 43.3165 19.5245 43.3165 18.4509C43.3165 17.3131 43.5286 16.3263 43.9529 15.4906C44.3836 14.6549 44.9815 14.0088 45.7465 13.5524C46.5115 13.0959 47.4018 12.8677 48.4176 12.8677C49.4783 12.8677 50.3815 13.1152 51.1272 13.6102C51.8729 14.0988 52.429 14.7963 52.7954 15.7027C53.1683 16.6091 53.3161 17.6859 53.239 18.9331H51.2236V18.2002C51.2108 16.9916 50.9793 16.0981 50.5293 15.5195C50.0858 14.9409 49.4076 14.6516 48.4947 14.6516C47.4854 14.6516 46.7268 14.9699 46.219 15.6063C45.7111 16.2427 45.4572 17.162 45.4572 18.3641C45.4572 19.5084 45.7111 20.3956 46.219 21.0256C46.7268 21.6491 47.4597 21.9609 48.4176 21.9609C49.0476 21.9609 49.5908 21.8195 50.0472 21.5366C50.5101 21.2474 50.8701 20.8359 51.1272 20.3024L53.104 20.9291C52.699 21.8613 52.0851 22.5845 51.2622 23.0988C50.4393 23.6066 49.5233 23.8606 48.514 23.8606ZM44.8015 18.9331V17.3613H52.2361V18.9331H44.8015ZM62.4292 23.5713V18.4509C62.4292 18.0459 62.3939 17.6313 62.3232 17.207C62.2589 16.7763 62.1303 16.3777 61.9375 16.0113C61.751 15.6449 61.4842 15.3491 61.1371 15.1241C60.7964 14.8991 60.3496 14.7866 59.7967 14.7866C59.4367 14.7866 59.096 14.8477 58.7746 14.9699C58.4532 15.0856 58.1703 15.2752 57.926 15.5388C57.6882 15.8024 57.4985 16.1495 57.3571 16.5802C57.2221 17.0109 57.1546 17.5349 57.1546 18.152L55.901 17.6795C55.901 16.7345 56.0778 15.902 56.4314 15.182C56.785 14.4556 57.2928 13.8899 57.955 13.4849C58.6171 13.0799 59.4175 12.8774 60.356 12.8774C61.076 12.8774 61.6803 12.9931 62.1689 13.2245C62.6575 13.4559 63.0528 13.7613 63.355 14.1406C63.6635 14.5134 63.8982 14.9216 64.0589 15.3652C64.2196 15.8088 64.3289 16.2427 64.3867 16.667C64.4446 17.0913 64.4735 17.4641 64.4735 17.7856V23.5713H62.4292ZM55.1103 23.5713V13.157H56.9135V16.1656H57.1546V23.5713H55.1103ZM70.9901 23.8606C70.0194 23.8606 69.1805 23.6195 68.4733 23.1374C67.7726 22.6552 67.2294 21.9995 66.8437 21.1702C66.4644 20.3345 66.2748 19.3959 66.2748 18.3545C66.2748 17.3066 66.4676 16.3713 66.8533 15.5484C67.2391 14.7191 67.7855 14.0666 68.4926 13.5909C69.2062 13.1088 70.0516 12.8677 71.0287 12.8677C72.0123 12.8677 72.8383 13.1088 73.5069 13.5909C74.1819 14.0666 74.6898 14.7191 75.0305 15.5484C75.3776 16.3777 75.5512 17.3131 75.5512 18.3545C75.5512 19.3959 75.3776 20.3313 75.0305 21.1606C74.6833 21.9899 74.1723 22.6488 73.4973 23.1374C72.8223 23.6195 71.9866 23.8606 70.9901 23.8606ZM71.2698 22.0381C71.9319 22.0381 72.4719 21.8806 72.8898 21.5656C73.3076 21.2506 73.613 20.8166 73.8059 20.2638C73.9987 19.7109 74.0951 19.0745 74.0951 18.3545C74.0951 17.6345 73.9955 16.9981 73.7962 16.4452C73.6033 15.8924 73.3012 15.4616 72.8898 15.1531C72.4848 14.8445 71.9673 14.6902 71.3373 14.6902C70.6687 14.6902 70.1191 14.8541 69.6883 15.182C69.2576 15.5099 68.9362 15.9502 68.7241 16.5031C68.5183 17.0559 68.4155 17.6731 68.4155 18.3545C68.4155 19.0424 68.5183 19.6659 68.7241 20.2252C68.9362 20.7781 69.2512 21.2184 69.6691 21.5463C70.0933 21.8741 70.6269 22.0381 71.2698 22.0381ZM74.0951 23.5713V16.0788H73.8637V9.68557H75.8887V23.5713H74.0951ZM81.5278 23.8606C80.7564 23.8606 80.1103 23.7191 79.5896 23.4363C79.0689 23.147 78.6735 22.7677 78.4035 22.2984C78.14 21.8227 78.0082 21.302 78.0082 20.7363C78.0082 20.2091 78.1014 19.7463 78.2878 19.3477C78.4742 18.9491 78.7507 18.6116 79.1171 18.3352C79.4835 18.0524 79.9335 17.8241 80.4671 17.6506C80.93 17.5156 81.4539 17.3966 82.0389 17.2938C82.6239 17.1909 83.2378 17.0945 83.8807 17.0045C84.53 16.9145 85.1728 16.8245 85.8092 16.7345L85.0764 17.1395C85.0892 16.3231 84.9157 15.7188 84.5557 15.3266C84.2021 14.9281 83.5914 14.7288 82.7235 14.7288C82.1771 14.7288 81.6757 14.8574 81.2192 15.1145C80.7628 15.3652 80.4446 15.7831 80.2646 16.3681L78.3842 15.7895C78.6414 14.8959 79.13 14.1856 79.85 13.6584C80.5764 13.1313 81.5407 12.8677 82.7428 12.8677C83.675 12.8677 84.485 13.0284 85.1728 13.3499C85.8671 13.6649 86.375 14.1663 86.6964 14.8541C86.8635 15.1949 86.9664 15.5549 87.005 15.9341C87.0435 16.3134 87.0628 16.7216 87.0628 17.1588V23.5713H85.2789V21.1895L85.626 21.4981C85.1953 22.2952 84.6457 22.8899 83.9771 23.282C83.315 23.6677 82.4985 23.8606 81.5278 23.8606ZM81.8846 22.2116C82.4567 22.2116 82.9485 22.112 83.36 21.9127C83.7714 21.707 84.1025 21.4466 84.3532 21.1316C84.6039 20.8166 84.7678 20.4888 84.845 20.1481C84.9542 19.8395 85.0153 19.4924 85.0282 19.1066C85.0475 18.7209 85.0571 18.4124 85.0571 18.1809L85.7128 18.422C85.0764 18.5184 84.4978 18.6052 83.9771 18.6824C83.4564 18.7595 82.9839 18.8366 82.5596 18.9138C82.1417 18.9845 81.7689 19.0713 81.441 19.1741C81.1646 19.2706 80.9171 19.3863 80.6985 19.5213C80.4864 19.6563 80.316 19.8202 80.1875 20.0131C80.0653 20.2059 80.0042 20.4406 80.0042 20.717C80.0042 20.987 80.0717 21.2377 80.2067 21.4691C80.3417 21.6941 80.5475 21.8741 80.8239 22.0091C81.1003 22.1441 81.4539 22.2116 81.8846 22.2116Z" fill="black"/>
<defs>
<clipPath id="clip0_213_15217">
<rect width="30.7143" height="30" fill="white"/>
</clipPath>
</defs>
</svg>
