<svg width="65" height="63" viewBox="0 0 65 63" fill="none" xmlns="http://www.w3.org/2000/svg">
<g id="t1-logotipo">
<path id="Union" fill-rule="evenodd" clip-rule="evenodd" d="M46.1247 6.9574C46.4534 6.9574 46.7273 7.09435 46.9464 7.31348H46.919C47.0286 7.45044 47.0834 7.61479 47.0834 7.77914V7.97088V8.10783C47.0012 8.87479 46.1247 15.613 37.3868 16.4622H33.3877C33.2508 16.4622 33.1412 16.4896 33.059 16.517C32.6482 16.6813 32.4838 17.1744 32.566 17.5852C32.5934 17.64 32.5934 17.7222 32.5934 17.8044V55.9878C32.5934 56.4535 32.1277 56.7548 31.6895 56.5631C29.1968 55.4126 26.0742 54.0978 22.5955 53.0296C22.3216 52.9474 22.1299 52.7009 22.1299 52.427V21.5844V21.5296V16.2978H8.13294C7.72207 16.2978 7.39337 16.0239 7.39337 15.6404V8.8474C7.39337 7.80653 8.32468 6.9574 9.47511 6.9574H46.1247ZM45.2207 25.6656H39.5781L39.5233 25.693C39.0029 25.693 38.5646 25.2548 38.5646 24.7343V19.3383C38.5646 18.8178 38.9481 18.407 39.4411 18.3796C39.852 18.3522 40.2355 18.2974 40.5916 18.2426C45.1111 17.4209 48.0694 14.0791 49.5485 9.64174C49.6855 9.25826 50.0416 8.98434 50.4524 8.98434H55.3007C55.8211 8.98434 56.2594 9.42261 56.2594 9.94304V25.6656V25.7478V25.8848V48.7565C56.2594 48.9209 56.232 49.0578 56.1772 49.1674C52.8903 50.2083 50.0964 51.1943 47.7681 52.1256L46.8916 52.3996C46.289 52.5639 45.6864 52.1256 45.6864 51.4957V25.8848V25.8026C45.5494 25.7204 45.3851 25.6656 45.2207 25.6656Z" fill="#D93A26"/>
</g>
</svg>
